HIERARCHY
ROOT joint_Root
{
  OFFSET 0 0 0
  CHANNELS 6 Xposition Yposition Zposition Zrotation Xrotation Yrotation
  JOINT Hips
  {
    OFFSET 0.847027 93.984 -452.225
    CHANNELS 6 Xposition Yposition Zposition Zrotation Xrotation Yrotation
    JOINT Spine
    {
      OFFSET 15.7357 0 0
      CHANNELS 6 Xposition Yposition Zposition Zrotation Xrotation Yrotation
      JOINT Chest
      {
        OFFSET 8.98455 -0.406207 0
        CHANNELS 6 Xposition Yposition Zposition Zrotation Xrotation Yrotation
        JOINT Neck
        {
          OFFSET 16.3773 0 0
          CHANNELS 6 Xposition Yposition Zposition Zrotation Xrotation Yrotation
          JOINT Head
          {
            OFFSET 6.45672 0 0
            CHANNELS 6 Xposition Yposition Zposition Zrotation Xrotation Yrotation
            End Site
            {
              OFFSET 0 0 0
            }
          }
        }
        JOINT Shoulder_L
        {
          OFFSET 12.9942 -0.242716 4.98039
          CHANNELS 6 Xposition Yposition Zposition Zrotation Xrotation Yrotation
          JOINT UpperArm_L
          {
            OFFSET 5.34809 0 0
            CHANNELS 6 Xposition Yposition Zposition Zrotation Xrotation Yrotation
            JOINT LowerArm_L
            {
              OFFSET 24.3286 1.87007e-05 0
              CHANNELS 6 Xposition Yposition Zposition Zrotation Xrotation Yrotation
              JOINT Hand_L
              {
                OFFSET 22.2916 0 0
                CHANNELS 6 Xposition Yposition Zposition Zrotation Xrotation Yrotation
                End Site
                {
                  OFFSET 0 0 0
                }
              }
            }
          }
        }
        JOINT Shoulder_R
        {
          OFFSET 12.9945 -0.242716 -4.98039
          CHANNELS 6 Xposition Yposition Zposition Zrotation Xrotation Yrotation
          JOINT UpperArm_R
          {
            OFFSET -5.34813 0 0
            CHANNELS 6 Xposition Yposition Zposition Zrotation Xrotation Yrotation
            JOINT LowerArm_R
            {
              OFFSET -24.3289 0.000322201 0
              CHANNELS 6 Xposition Yposition Zposition Zrotation Xrotation Yrotation
              JOINT Hand_R
              {
                OFFSET -22.2915 -0.000108084 0
                CHANNELS 6 Xposition Yposition Zposition Zrotation Xrotation Yrotation
                End Site
                {
                  OFFSET 0 0 0
                }
              }
            }
          }
        }
      }
    }
    JOINT UpperLeg_L
    {
      OFFSET -2.19248 -6.46944 0
      CHANNELS 6 Xposition Yposition Zposition Zrotation Xrotation Yrotation
      JOINT LowerLeg_L
      {
        OFFSET 39.0811 0 -1.23785e-05
        CHANNELS 6 Xposition Yposition Zposition Zrotation Xrotation Yrotation
        JOINT Foot_L
        {
          OFFSET 40.9854 0 -1.26872e-05
          CHANNELS 6 Xposition Yposition Zposition Zrotation Xrotation Yrotation
          JOINT Toes_L
          {
            OFFSET 11.7543 0 0
            CHANNELS 6 Xposition Yposition Zposition Zrotation Xrotation Yrotation
            End Site
            {
              OFFSET 0 0 0
            }
          }
        }
      }
    }
    JOINT UpperLeg_R
    {
      OFFSET -2.19251 6.46944 0
      CHANNELS 6 Xposition Yposition Zposition Zrotation Xrotation Yrotation
      JOINT LowerLeg_R
      {
        OFFSET -39.0811 -0.00228153 -0.0401928
        CHANNELS 6 Xposition Yposition Zposition Zrotation Xrotation Yrotation
        JOINT Foot_R
        {
          OFFSET -40.9854 0 0
          CHANNELS 6 Xposition Yposition Zposition Zrotation Xrotation Yrotation
          JOINT Toes_R
          {
            OFFSET -11.7543 0 0
            CHANNELS 6 Xposition Yposition Zposition Zrotation Xrotation Yrotation
            End Site
            {
              OFFSET 0 0 0
            }
          }
        }
      }
    }
  }
}
MOTION
Frames:	8
Frame Time:	0.0333333
0 0 0 0 0 -0 -1.21806 91.303 -15.3529 86.638 2.64386 -28.108 15.7357 5.1072e-06 -5.51765e-07 88.1204 75.8843 -89.1738 8.98455 -0.406207 -4.3199e-07 20.4437 -1.02027 -1.92974 16.3773 -1.3905e-06 -6.99897e-07 6.62862 -3.12563 3.52115 6.45672 -1.25837e-06 -1.02172e-07 -33.8511 -5.44734 9.27837 12.9942 -0.242716 4.98039 -90.9738 2.92664 -86.5876 5.34809 -7.22636e-06 -6.2814e-07 -64.5875 7.69895 -16.6372 24.3286 1.87007e-05 4.90208e-06 -6.89976 -5.80548 -50.1077 22.2916 -9.88446e-07 4.63217e-06 31.7963 5.67224 -17.7487 12.9945 -0.242716 -4.98039 87.7023 10.8783 -92.997 -5.34813 -1.25947e-06 -3.79883e-06 -61.756 10.1028 -5.21086 -24.3289 0.000322201 -8.65921e-06 -1.96642 -1.36223 -55.2842 -22.2915 -0.000108084 -4.47941e-06 24.0832 5.51102 -6.98439 -2.19248 -6.46944 -1.22534e-07 -173.975 -5.60625 -49.7397 39.0811 -6.73843e-06 -1.23785e-05 0.0761563 -0.236915 21.725 40.9854 -6.48686e-06 -1.26872e-05 -3.04181 0.391207 -49.8085 11.7543 -2.30145e-07 3.05095e-06 0.00428765 -0.00659375 -16.6956 -2.19251 6.46944 -1.45247e-06 -174.546 10.5824 134.416 -39.0811 -0.00228153 -0.0401928 0.0522095 -0.233659 14.1034 -40.9854 7.72618e-06 5.99936e-06 -2.523 -2.98151 -46.9162 -11.7543 -5.6619e-06 -5.58687e-06 -0.0220734 0.0155174 -16.5728 
0 0 0 0 0 -0 -1.07125 91.3454 -15.1602 86.7597 2.65561 -27.3652 15.7357 5.1072e-06 -5.51765e-07 88.1327 75.9302 -89.2125 8.98455 -0.406207 -4.3199e-07 20.352 -1.01368 -1.98472 16.3773 -1.3905e-06 -6.99897e-07 6.79797 -3.28303 3.54537 6.45672 -1.25837e-06 -1.02172e-07 -33.6328 -5.74077 9.21159 12.9942 -0.242716 4.98039 -90.9641 2.90055 -86.6062 5.34809 -7.22636e-06 -6.2814e-07 -64.5729 7.8782 -16.6728 24.3286 1.87007e-05 4.90208e-06 -6.85729 -5.84845 -49.7248 22.2916 -9.88446e-07 4.63217e-06 31.5684 5.6712 -17.5707 12.9945 -0.242716 -4.98039 87.6882 10.9067 -92.956 -5.34813 -1.25947e-06 -3.79883e-06 -61.783 10.1441 -5.11609 -24.3289 0.000322201 -8.65921e-06 -1.96502 -1.38484 -54.8214 -22.2915 -0.000108084 -4.47941e-06 23.8786 5.50942 -6.91739 -2.19248 -6.46944 -1.22534e-07 -174.12 -5.44118 -48.8684 39.0811 -6.73843e-06 -1.23785e-05 0.0759863 -0.230077 21.7772 40.9854 -6.48686e-06 -1.26872e-05 -2.94726 0.410845 -50.0004 11.7543 -2.30145e-07 3.05095e-06 0.0060976 -0.00943047 -16.7463 -2.19251 6.46944 -1.45247e-06 -174.928 10.7558 135.288 -39.0811 -0.00228153 -0.0401928 0.0523292 -0.234135 14.1949 -40.9854 7.72618e-06 5.99936e-06 -2.67033 -3.02195 -47.1025 -11.7543 -5.6619e-06 -5.58687e-06 -0.0209647 0.0146748 -16.5728 
0 0 0 0 0 -0 -0.906315 91.3783 -14.9199 86.955 2.68456 -26.5072 15.7357 5.1072e-06 -5.51765e-07 88.0335 75.9882 -89.1408 8.98455 -0.406207 -4.3199e-07 20.2339 -1.05947 -2.03274 16.3773 -1.3905e-06 -6.99897e-07 6.93214 -3.412 3.61181 6.45672 -1.25837e-06 -1.02172e-07 -33.5426 -6.02777 9.17343 12.9942 -0.242716 4.98039 -90.9523 2.85146 -86.5237 5.34809 -7.22636e-06 -6.2814e-07 -64.5725 8.05319 -16.7074 24.3286 1.87007e-05 4.90208e-06 -6.64856 -5.77575 -49.1946 22.2916 -9.88446e-07 4.63217e-06 31.0595 5.67041 -17.4417 12.9945 -0.242716 -4.98039 87.6735 10.9391 -92.9157 -5.34813 -1.25947e-06 -3.79883e-06 -61.8195 10.1804 -4.95463 -24.3289 0.000322201 -8.65921e-06 -1.91081 -1.36993 -54.3556 -22.2915 -0.000108084 -4.47941e-06 23.5983 5.50673 -6.80737 -2.19248 -6.46944 -1.22533e-07 -174.258 -5.12658 -47.8808 39.0811 -6.73843e-06 -1.23785e-05 0.0738493 -0.221428 21.9116 40.9854 -6.48686e-06 -1.26872e-05 -2.83704 0.328413 -50.285 11.7543 -2.30145e-07 3.05095e-06 0.00715841 -0.0110626 -16.7754 -2.19251 6.46944 -1.45247e-06 -175.384 11.0209 136.16 -39.0811 -0.00228153 -0.0401928 0.0552259 -0.233676 14.5718 -40.9854 7.72618e-06 5.99936e-06 -2.84151 -3.0116 -47.4555 -11.7543 -5.6619e-06 -5.58687e-06 -0.0227624 0.0159092 -16.5727 
0 0 0 0 0 -0 -0.704102 91.4052 -14.6344 87.0954 2.6302 -25.5561 15.7357 5.1072e-06 -5.51765e-07 88.0398 76.0716 -89.167 8.98455 -0.406207 -4.3199e-07 20.0672 -1.05176 -2.07549 16.3773 -1.3905e-06 -6.99897e-07 6.9479 -3.51094 3.67374 6.45672 -1.25837e-06 -1.02172e-07 -33.4521 -6.26187 9.19359 12.9942 -0.242716 4.98039 -90.9438 2.80635 -86.4034 5.34809 -7.22636e-06 -6.2814e-07 -64.5796 8.20211 -16.65 24.3286 1.87007e-05 4.90208e-06 -6.56423 -5.81113 -48.6557 22.2916 -9.88446e-07 4.63217e-06 30.4969 5.6708 -17.512 12.9945 -0.242716 -4.98039 87.6598 10.957 -92.8655 -5.34813 -1.25947e-06 -3.79883e-06 -61.8448 10.2253 -4.81152 -24.3289 0.000322201 -8.65921e-06 -1.88109 -1.37539 -53.8214 -22.2915 -0.000108084 -4.47941e-06 22.9258 5.49836 -6.46422 -2.19248 -6.46944 -1.22534e-07 -174.35 -4.82572 -46.8319 39.0811 -6.73843e-06 -1.23785e-05 0.0713506 -0.212629 22.211 40.9854 -6.48686e-06 -1.26872e-05 -2.72968 0.186774 -50.6959 11.7543 -2.30145e-07 3.05095e-06 0.00869497 -0.0134337 -16.8179 -2.19251 6.46944 -1.45247e-06 -175.828 11.279 137.154 -39.0811 -0.00228153 -0.0401928 0.0549016 -0.23311 14.9554 -40.9854 7.72618e-06 5.99936e-06 -3.03327 -2.91584 -47.8338 -11.7543 -5.6619e-06 -5.58687e-06 -0.0207934 0.0145134 -16.5729 
0 0 0 0 0 -0 -0.457811 91.4242 -14.3035 87.2043 2.52346 -24.4922 15.7357 5.1072e-06 -5.51765e-07 88.009 76.1721 -89.1361 8.98455 -0.406207 -4.3199e-07 19.8657 -1.05803 -2.07585 16.3773 -1.3905e-06 -6.99897e-07 6.76695 -3.6304 3.74591 6.45672 -1.25837e-06 -1.02172e-07 -33.3232 -6.44673 9.15912 12.9942 -0.242716 4.98039 -90.9291 2.73314 -86.2179 5.34809 -7.22636e-06 -6.2814e-07 -64.6441 8.34416 -16.5201 24.3286 1.87007e-05 4.90208e-06 -6.66972 -6.04156 -48.0112 22.2916 -9.88446e-07 4.63217e-06 29.8851 5.67252 -17.8002 12.9945 -0.242716 -4.98039 87.63 11.025 -92.7883 -5.34813 -1.25947e-06 -3.79883e-06 -61.7617 10.2752 -4.71229 -24.3289 0.000322201 -8.65921e-06 -1.67037 -1.24794 -53.2258 -22.2915 -0.000108084 -4.47941e-06 21.6113 5.48316 -5.86414 -2.19248 -6.46944 -1.22533e-07 -174.391 -4.42872 -45.7293 39.0811 -6.73843e-06 -1.23785e-05 0.0702451 -0.200917 22.6995 40.9854 -6.48686e-06 -1.26872e-05 -2.52046 -0.162766 -51.2126 11.7543 -2.30145e-07 3.05095e-06 0.00931629 -0.0144176 -16.8354 -2.19251 6.46944 -1.45247e-06 -176.331 11.4813 138.265 -39.0811 -0.00228153 -0.0401928 0.0575467 -0.230921 15.3977 -40.9854 7.72618e-06 5.99936e-06 -3.26455 -2.82495 -48.2608 -11.7543 -5.6619e-06 -5.58687e-06 -0.0231361 0.0161131 -16.5729 
0 0 0 0 0 -0 -0.144746 91.4319 -13.9295 87.3851 2.32533 -23.2497 15.7357 5.1072e-06 -5.51765e-07 87.9569 76.2587 -89.1122 8.98455 -0.406207 -4.3199e-07 19.6915 -1.07809 -2.13027 16.3773 -1.3905e-06 -6.99897e-07 6.40873 -3.70853 3.80159 6.45672 -1.25837e-06 -1.02172e-07 -33.0551 -6.57315 9.18442 12.9942 -0.242716 4.98039 -90.9155 2.67185 -86.0785 5.34809 -7.22636e-06 -6.2814e-07 -64.6389 8.44711 -16.3511 24.3286 1.87007e-05 4.90208e-06 -6.67709 -6.19963 -47.3092 22.2916 -9.88446e-07 4.63217e-06 29.3215 5.67355 -17.9842 12.9945 -0.242716 -4.98039 87.5868 11.1447 -92.6999 -5.34813 -1.25947e-06 -3.79883e-06 -61.6392 10.3223 -4.60164 -24.3289 0.000322201 -8.65921e-06 -1.24472 -0.94986 -52.6288 -22.2915 -0.000108084 -4.47941e-06 20.3781 5.46237 -5.08408 -2.19248 -6.46944 -1.22534e-07 -174.415 -3.79372 -44.4297 39.0811 -6.73843e-06 -1.23785e-05 0.067385 -0.187336 23.2751 40.9854 -6.48686e-06 -1.26872e-05 -2.3001 -0.758123 -51.8248 11.7543 -2.30145e-07 3.05095e-06 0.0111528 -0.0172798 -16.8864 -2.19251 6.46944 -1.45247e-06 -177.03 11.6544 139.506 -39.0811 -0.00228153 -0.0401928 0.0615981 -0.229177 16.018 -40.9854 7.72618e-06 5.99936e-06 -3.55794 -2.69128 -48.7943 -11.7543 -5.6619e-06 -5.58687e-06 -0.0223231 0.015549 -16.5728 
0 0 0 0 0 -0 0.22995 91.4312 -13.5013 87.6045 2.04635 -21.8175 15.7357 5.1072e-06 -5.51765e-07 87.9396 76.3328 -89.1289 8.98455 -0.406207 -4.3199e-07 19.5426 -1.08329 -2.19881 16.3773 -1.3905e-06 -6.99897e-07 6.1304 -3.80242 3.76784 6.45672 -1.25837e-06 -1.02172e-07 -32.6857 -6.75378 9.22383 12.9942 -0.242716 4.98039 -90.9301 2.7115 -86.0594 5.34809 -7.22636e-06 -6.2814e-07 -64.4854 8.52105 -16.1671 24.3286 1.87007e-05 4.90208e-06 -6.67826 -6.38817 -46.4622 22.2916 -9.88446e-07 4.63217e-06 28.8046 5.67408 -18.0845 12.9945 -0.242716 -4.98039 87.5691 11.1881 -92.6582 -5.34813 -1.25947e-06 -3.79883e-06 -61.6698 10.208 -4.46738 -24.3289 0.000322201 -8.65921e-06 -0.842653 -0.659174 -51.9236 -22.2915 -0.000108084 -4.47941e-06 19.3569 5.44847 -4.58293 -2.19248 -6.46944 -1.22534e-07 -174.622 -3.29156 -42.9234 39.0811 -6.73843e-06 -1.23785e-05 0.066147 -0.17409 23.9229 40.9854 -6.48686e-06 -1.26872e-05 -2.10977 -1.26195 -52.5708 11.7543 -2.30145e-07 3.05095e-06 0.0115536 -0.0178962 -16.8975 -2.19251 6.46944 -1.45247e-06 -177.912 11.7318 140.941 -39.0811 -0.00228153 -0.0401928 0.0645802 -0.224683 16.7211 -40.9854 7.72618e-06 5.99936e-06 -3.90862 -2.61752 -49.3932 -11.7543 -5.6619e-06 -5.58687e-06 -0.0237326 0.0165539 -16.5729 
0 0 0 0 0 -0 0.628092 91.4283 -13.0248 87.7531 1.6779 -20.3571 15.7357 5.1072e-06 -5.51765e-07 87.942 76.4401 -89.1445 8.98455 -0.406207 -4.3199e-07 19.3283 -1.07421 -2.22874 16.3773 -1.3905e-06 -6.99897e-07 5.94216 -3.9422 3.70331 6.45672 -1.25837e-06 -1.02172e-07 -32.3348 -6.95374 9.14284 12.9942 -0.242716 4.98039 -90.9561 2.77777 -85.9978 5.34809 -7.22636e-06 -6.2814e-07 -64.3625 8.62293 -15.9665 24.3286 1.87007e-05 4.90208e-06 -6.64573 -6.57226 -45.5106 22.2916 -9.88446e-07 4.63217e-06 28.3408 5.67337 -17.9437 12.9945 -0.242716 -4.98039 87.55 11.245 -92.6246 -5.34813 -1.25947e-06 -3.79883e-06 -61.6438 10.2287 -4.27039 -24.3289 0.000322201 -8.65921e-06 -0.527359 -0.421618 -51.2994 -22.2915 -0.000108084 -4.47941e-06 18.7858 5.43722 -4.18857 -2.19248 -6.46944 -1.22534e-07 -175.01 -3.22829 -41.4123 39.0811 -6.73843e-06 -1.23785e-05 0.0640312 -0.161795 24.6797 40.9854 -6.48686e-06 -1.26872e-05 -1.82732 -1.41294 -53.3501 11.7543 -2.30145e-07 3.05095e-06 0.0126142 -0.019565 -16.9272 -2.19251 6.46944 -1.45247e-06 -178.776 11.6802 142.483 -39.0811 -0.00228153 -0.0401928 0.0663761 -0.220458 17.3324 -40.9854 7.72618e-06 5.99936e-06 -4.2708 -2.5206 -49.976 -11.7543 -5.6619e-06 -5.58687e-06 -0.0207739 0.0145255 -16.573 
